<?xml version="1.0" standalone="no"?><!DOCTYPE svg PUBLIC "-//W3C//DTD SVG 1.1//EN" "http://www.w3.org/Graphics/SVG/1.1/DTD/svg11.dtd"><svg t="1574775748220" class="icon" viewBox="0 0 1024 1024" version="1.1" xmlns="http://www.w3.org/2000/svg" p-id="8398" xmlns:xlink="http://www.w3.org/1999/xlink" width="32" height="32"><defs><style type="text/css"></style></defs><path d="M78.449211 512.413416l865.387539 0 0 37.625946-865.387539 0 0-37.625946Z" p-id="8399"></path><path d="M321.335031 732.899062c-0.462534 1.879813-1.149173 3.64604-2.055822 5.266957l400.548652 0c-7.7935-10.691503-11.538801-24.561395-10.194176-37.624922L331.069743 700.541097C332.499301 711.792349 327.655993 723.779358 321.335031 732.899062z" p-id="8400"></path><path d="M990.703151 574.9671l-145.137565-335.091848c-17.561981-40.766472-57.446363-66.092277-104.130615-66.092277L172.329369 173.782975c-62.280462 0-112.931049 50.632167-112.931049 112.876814l0 338.629417c0 62.252833 50.65161 112.876814 112.931049 112.876814L192.845635 738.166019c-0.334621-0.603751-0.649799-1.219781-0.957815-1.843998-2.484587-3.776-4.556783-7.748475-6.181793-11.598152-3.113921-7.374968-5.771447-16.090467-4.967128-24.182772l-8.408507 0c-41.519626 0-75.306126-33.749662-75.306126-75.251891L97.024266 286.660812c0-41.502229 33.786501-75.249845 75.306126-75.249845l569.105602 0c31.396057 0 58.055231 16.607236 69.572542 43.38409l145.138588 335.092871c10.488889 24.379247 7.697309 52.690036-7.478322 75.738985-14.624069 22.183232-37.497009 34.916231-62.720484 34.916231l-26.616194 0c1.248434 7.68196-1.874697 16.940834-4.827959 23.275099-0.831948 1.783623-1.768273 3.63069-2.800789 5.484921-0.554632 1.989307-1.223874 3.956102-1.998517 5.891174-0.333598 1.013073-0.720408 2.001587-1.134847 2.972705l37.378306 0c37.57171 0 72.751954-19.373233 94.135984-51.863205C1002.239905 652.664693 1006.20931 611.051947 990.703151 574.9671z" p-id="8401"></path><path d="M784.019859 626.245997c41.280172 0 74.772984 33.491789 74.772984 74.782194 0 41.291428-33.492812 74.763774-74.772984 74.763774-41.299615 0-74.791403-33.472346-74.791403-74.763774C709.228455 659.737786 742.720244 626.245997 784.019859 626.245997M784.019859 588.619028c-61.969377 0-112.417349 50.420343-112.417349 112.409163 0 61.969377 50.448996 112.38972 112.417349 112.38972 61.968353 0 112.39893-50.420343 112.39893-112.38972C896.418788 639.040395 845.988212 588.619028 784.019859 588.619028" p-id="8402"></path><path d="M257.26276 626.245997c41.282219 0 74.774007 33.491789 74.774007 74.782194 0 41.291428-33.491789 74.763774-74.774007 74.763774-41.299615 0-74.791403-33.472346-74.791403-74.763774C182.470333 659.737786 215.962122 626.245997 257.26276 626.245997M257.26276 588.619028c-61.968353 0-112.417349 50.420343-112.417349 112.409163 0 61.969377 50.448996 112.38972 112.417349 112.38972 61.968353 0 112.39893-50.420343 112.39893-112.38972C369.661689 639.040395 319.231113 588.619028 257.26276 588.619028" p-id="8403"></path><path d="M567.580365 625.290229l-56.43636 0c-10.399861 0-18.813484-8.405437-18.813484-18.813484 0-10.398838 8.413624-18.813484 18.813484-18.813484L567.580365 587.66326c10.399861 0 18.813484 8.414647 18.813484 18.813484C586.393849 616.884792 577.980225 625.290229 567.580365 625.290229" p-id="8404"></path><path d="M918.429081 474.788493l-0.36839 0L642.832256 474.788493c-31.121811 0-56.438407-25.316595-56.438407-56.438407L586.393849 305.473273c0-31.112602 25.316595-56.438407 56.438407-56.438407l193.860243 0c7.494695 0 14.291494 4.464685 17.268292 11.344373l79.989799 184.967712c2.075265 3.031033 3.289929 6.678096 3.289929 10.628058C937.241542 466.383056 928.828942 474.788493 918.429081 474.788493M642.832256 286.660812c-10.381441 0-18.813484 8.433066-18.813484 18.812461l0 112.876814c0 10.380418 8.432043 18.812461 18.813484 18.812461l246.586095 0-65.10888-150.501736L642.832256 286.660812z" p-id="8405"></path></svg>